<svg width="61" height="60" viewBox="0 0 61 60" fill="none" xmlns="http://www.w3.org/2000/svg">
<rect x="1" y="0.5" width="59" height="59" rx="29.5" fill="#141414"/>
<rect x="1" y="0.5" width="59" height="59" rx="29.5" stroke="#703BF7"/>
<path fill-rule="evenodd" clip-rule="evenodd" d="M29.0862 19.7458C29.6093 18.4882 31.3908 18.4882 31.9139 19.7458L34.3429 25.5858L40.6477 26.0913C42.0053 26.2001 42.5559 27.8944 41.5215 28.7805L36.7179 32.8953L38.1854 39.0477C38.5015 40.3726 37.0602 41.4197 35.8978 40.7098L30.5001 37.4128L25.1023 40.7098C23.9399 41.4197 22.4986 40.3726 22.8147 39.0477L24.2822 32.8953L19.4787 28.7805C18.4442 27.8945 18.9948 26.2001 20.3525 26.0913L26.6572 25.5858L29.0862 19.7458Z" fill="#A685FA"/>
</svg>
