<svg width="20" height="20" viewBox="0 0 20 20" fill="none" xmlns="http://www.w3.org/2000/svg">
<path d="M17.8555 2.14854C17.4389 1.72271 16.8222 1.56521 16.2472 1.73187L2.83887 5.60604C2.2322 5.77437 1.8022 6.25521 1.68637 6.86521C1.56803 7.48687 1.98137 8.27687 2.52137 8.60687L6.71387 11.1669C7.14387 11.4302 7.69887 11.3644 8.0547 11.0077L12.8555 6.20687C13.0972 5.95604 13.4972 5.95604 13.7389 6.20687C13.9805 6.44771 13.9805 6.84021 13.7389 7.09021L8.9297 11.891C8.57303 12.2477 8.50637 12.801 8.76887 13.2319L11.3305 17.4402C11.6305 17.9394 12.1472 18.2235 12.7139 18.2235C12.7805 18.2235 12.8555 18.2235 12.9222 18.2144C13.5722 18.1319 14.0889 17.6894 14.2805 17.0644L18.2555 3.75687C18.4305 3.19021 18.2722 2.57354 17.8555 2.14854Z" fill="white"/>
<path opacity="0.4" d="M7.87502 15.9519C8.11835 16.196 8.11835 16.5919 7.87502 16.836L6.73669 17.9735C6.61502 18.096 6.45502 18.1569 6.29502 18.1569C6.13502 18.1569 5.97502 18.096 5.85335 17.9735C5.60919 17.7294 5.60919 17.3344 5.85335 17.0902L6.99085 15.9519C7.23502 15.7085 7.63085 15.7085 7.87502 15.9519ZM7.22194 12.7952C7.46527 13.0394 7.46527 13.4352 7.22194 13.6794L6.0836 14.8169C5.96194 14.9394 5.80194 15.0002 5.64194 15.0002C5.48194 15.0002 5.32194 14.9394 5.20027 14.8169C4.9561 14.5727 4.9561 14.1777 5.20027 13.9335L6.33777 12.7952C6.58194 12.5519 6.97777 12.5519 7.22194 12.7952ZM4.0876 11.8015C4.33094 12.0457 4.33094 12.4415 4.0876 12.6857L2.94927 13.8232C2.8276 13.9457 2.6676 14.0065 2.5076 14.0065C2.3476 14.0065 2.1876 13.9457 2.06594 13.8232C1.82177 13.579 1.82177 13.184 2.06594 12.9399L3.20344 11.8015C3.4476 11.5582 3.84344 11.5582 4.0876 11.8015Z" fill="white"/>
</svg>
