<svg width="21" height="21" viewBox="0 0 21 21" fill="none" xmlns="http://www.w3.org/2000/svg">
<g clip-path="url(#clip0_139_6672)">
<path d="M0.936447 14.2616H10.777V16.0697H16.9285V14.2655H19.3724C19.5307 16.4158 19.5431 18.3304 17.3376 19.7897C17.3107 19.8075 17.289 19.8318 17.2293 19.885C17.5005 20.1103 17.7678 20.3329 18.0325 20.5529C17.6752 20.8945 17.3882 21.169 17.0592 21.4842C16.7689 21.1848 16.4549 20.8373 16.1127 20.5207C16.0123 20.4275 15.8343 20.3894 15.6885 20.3802C15.4501 20.3657 15.2084 20.4045 14.968 20.4052C11.7727 20.4071 8.57747 20.4065 5.38156 20.4065C5.22853 20.4065 5.06499 20.436 4.92378 20.3933C4.49753 20.2653 4.22693 20.4629 3.97341 20.7684C3.75733 21.0284 3.51104 21.2629 3.28576 21.5007C2.98167 21.1808 2.70648 20.8918 2.40173 20.5707C2.60599 20.39 2.86542 20.1602 3.15703 19.9014C2.95606 19.7576 2.80565 19.6577 2.66313 19.5474C1.5952 18.7244 1.01789 17.6329 0.942358 16.2924C0.904922 15.6284 0.935791 14.9604 0.935791 14.2616H0.936447Z" fill="white"/>
<path d="M0.942535 9.28712C0.93728 9.16825 0.928086 9.06119 0.928086 8.95413C0.927429 7.21366 0.925458 5.47384 0.928086 3.73336C0.930713 1.82081 2.25807 0.486222 4.168 0.500014C4.80902 0.504612 5.46974 0.491476 6.08581 0.636625C7.1787 0.894741 7.867 1.65267 8.19934 2.7206C8.2637 2.92814 8.34711 3.02863 8.57502 3.09037C9.861 3.43912 10.7634 4.64104 10.7798 5.98219C10.7825 6.19827 10.7798 6.41435 10.7798 6.64882H4.69277C4.40247 5.11392 5.23659 3.52976 6.98035 3.0352C6.82272 2.35017 6.1482 1.7722 5.44019 1.74725C4.90491 1.7282 4.36766 1.72623 3.83238 1.74725C2.9096 1.78337 2.16744 2.63062 2.1635 3.64666C2.15693 5.39765 2.16153 7.14929 2.16153 8.90028C2.16153 9.01981 2.16153 9.13935 2.16153 9.28647H0.941221L0.942535 9.28712Z" fill="white"/>
<path d="M10.7596 13.0327C10.6309 13.0327 10.5343 13.0327 10.4378 13.0327C7.31016 13.0327 4.1819 13.0334 1.0543 13.0321C0.381095 13.0321 -0.102955 12.7135 -0.273062 12.1697C-0.529208 11.3514 0.0507325 10.5632 0.934763 10.5514C1.87528 10.5389 2.81579 10.5481 3.75631 10.5481C5.96573 10.5481 8.17449 10.5481 10.3839 10.5481C10.5021 10.5481 10.6204 10.5481 10.7596 10.5481V13.0321V13.0327Z" fill="white"/>
<path d="M15.6907 14.8711H12.0304C12.0245 14.7555 12.0147 14.6504 12.0147 14.5453C12.0133 13.2771 12.0133 12.0082 12.0147 10.7399C12.0153 9.82239 12.5164 9.31798 13.43 9.31404C13.7689 9.31272 14.1078 9.3055 14.4467 9.31601C15.2079 9.34031 15.7051 9.85194 15.7071 10.6151C15.711 11.9385 15.7084 13.2613 15.7071 14.5847C15.7071 14.6708 15.6979 14.7561 15.6907 14.8711Z" fill="white"/>
<path d="M16.9502 13.0209V10.5481C17.5452 10.5481 18.1317 10.5462 18.7176 10.5488C19.023 10.5501 19.335 10.5251 19.6338 10.5744C20.286 10.6821 20.7103 11.2161 20.6834 11.8394C20.6571 12.4508 20.2059 12.9756 19.5655 13.0091C18.7064 13.0544 17.8434 13.0203 16.9509 13.0203L16.9502 13.0209Z" fill="white"/>
</g>
<defs>
<clipPath id="clip0_139_6672">
<rect width="21.0171" height="21" fill="white" transform="translate(-0.333008 0.5)"/>
</clipPath>
</defs>
</svg>
