<svg width="21" height="21" viewBox="0 0 21 21" fill="none" xmlns="http://www.w3.org/2000/svg">
<g clip-path="url(#clip0_139_6665)">
<g clip-path="url(#clip1_139_6665)">
<path d="M10.6789 17.9597C7.68069 17.9597 4.68326 17.9597 1.68505 17.9597C1.38193 17.9597 1.24178 18.0984 1.24178 18.3977C1.24178 18.4752 1.24572 18.5527 1.24099 18.6295C1.23469 18.7225 1.22524 18.8155 1.20792 18.9062C1.14336 19.2372 0.82606 19.5023 0.44656 19.4984C0.0654848 19.4946 -0.250241 19.2116 -0.307717 18.8481C-0.321102 18.7628 -0.328188 18.6752 -0.328188 18.5891C-0.328975 16.8279 -0.340785 15.0659 -0.324251 13.3046C-0.314803 12.2783 0.0646975 11.3853 0.792204 10.6419C1.23391 10.1907 1.75906 9.86976 2.35981 9.66511C2.83222 9.50465 3.32037 9.45581 3.81797 9.45581C8.42945 9.45736 13.0409 9.45348 17.6524 9.45891C19.0035 9.46046 20.0979 9.9969 20.9089 11.0636C21.3073 11.5884 21.545 12.1845 21.6261 12.8357C21.6537 13.055 21.6655 13.2783 21.6663 13.5C21.6694 15.2101 21.6687 16.9202 21.6679 18.6302C21.6679 18.8977 21.601 19.1411 21.3773 19.3178C21.1411 19.5046 20.8774 19.5535 20.5963 19.4395C20.327 19.3295 20.157 19.1271 20.1184 18.838C20.0987 18.6922 20.1011 18.5426 20.0971 18.3953C20.0908 18.1574 19.9908 18.0139 19.7908 17.9698C19.7468 17.9597 19.7003 17.9605 19.6546 17.9605C16.6635 17.9605 13.6724 17.9605 10.6805 17.9605L10.6789 17.9597Z" fill="white"/>
<path d="M10.569 2.5C12.5137 2.5 14.4577 2.5 16.4016 2.5C17.0528 2.5 17.6614 2.64341 18.1865 3.03953C18.8621 3.54884 19.2565 4.21938 19.2896 5.06124C19.3179 5.77519 19.3053 6.4907 19.3085 7.20543C19.3109 7.66589 19.3085 8.12636 19.3085 8.58682C19.3085 8.62791 19.3061 8.67132 19.2951 8.71085C19.2613 8.83566 19.1928 8.88527 19.0636 8.86124C18.9227 8.83488 18.7865 8.77829 18.6456 8.76279C18.3141 8.72713 17.9818 8.70233 17.6488 8.68527C17.4267 8.67364 17.3582 8.63411 17.3267 8.41938C17.226 7.73876 16.5859 7.12636 15.767 7.13566C14.8537 7.14574 13.9404 7.13798 13.0278 7.13798C12.3484 7.13798 11.7681 7.53643 11.5374 8.16434C11.5043 8.25426 11.4917 8.35194 11.4744 8.44651C11.4421 8.61628 11.3784 8.67984 11.2067 8.68217C10.8469 8.68605 10.4863 8.68605 10.1265 8.68217C9.96114 8.68062 9.89579 8.61628 9.86587 8.42791C9.82414 8.16357 9.72021 7.92791 9.55014 7.72093C9.24229 7.34574 8.84389 7.14186 8.35259 7.13953C7.41014 7.13488 6.46769 7.13721 5.52445 7.13876C4.73238 7.13953 4.11274 7.74884 4.01196 8.41783C3.97967 8.63411 3.91433 8.67209 3.69229 8.68605C3.3246 8.71008 2.95691 8.74419 2.59001 8.78295C2.47742 8.79457 2.36955 8.84264 2.25775 8.86124C2.13729 8.88062 2.08139 8.84031 2.04753 8.72403C2.03415 8.67829 2.02785 8.62946 2.02785 8.5814C2.02706 7.47674 2.0121 6.37209 2.031 5.26744C2.05068 4.11163 2.59316 3.26202 3.6545 2.74806C4.07494 2.54574 4.53082 2.5 4.9922 2.5C6.85112 2.5 8.71004 2.5 10.569 2.5Z" fill="white"/>
</g>
</g>
<defs>
<clipPath id="clip0_139_6665">
<rect width="20" height="20" fill="white" transform="translate(0.666992 0.5)"/>
</clipPath>
<clipPath id="clip1_139_6665">
<rect width="22" height="17" fill="white" transform="translate(-0.333008 2.5)"/>
</clipPath>
</defs>
</svg>
