<svg width="358" height="302" viewBox="0 0 358 302" fill="none" xmlns="http://www.w3.org/2000/svg">
<g clip-path="url(#clip0_139_8023)">
<path d="M-157.704 333.23C-89.6047 321.302 -20.0329 325.036 47.8241 337.107C77.2725 342.349 106.766 345.804 136.394 339.791C174.012 332.153 201.755 309.545 236.195 295.095C292.048 271.661 336.526 328.509 388.626 337.152C409.195 340.563 426.155 331.857 445.844 328.06C471.118 323.187 492.953 330.358 515.659 341.317" stroke="url(#paint0_linear_139_8023)" stroke-miterlimit="10"/>
<path d="M-157.704 321.212C-89.5508 307.229 -22.6994 315.504 44.4483 330.645C73.9865 337.305 103.606 340.949 133.404 333.58C148.873 329.757 163.49 323.519 177.604 316.195C198.729 305.237 217.422 286.928 238.619 277.136C295.595 250.812 336.248 317.192 386.93 328.213C409.994 333.23 425.338 322.209 446.607 316.797C471.89 310.371 493.931 320.737 515.659 333.006" stroke="url(#paint1_linear_139_8023)" stroke-miterlimit="10"/>
<path d="M-157.704 308.89C-90.8976 293.031 -29.6216 306.269 35.111 323.887C65.1699 332.063 95.2109 337.009 125.817 328.527C142.014 324.04 157.088 316.644 171.561 308.217C194.24 295.014 213.803 273.968 236.635 261.995C296.6 230.555 332.163 307.642 383.985 319.92C408.342 325.691 422.609 312.462 444.3 305.632C470.552 297.366 493.886 311.098 515.649 324.695" stroke="url(#paint2_linear_139_8023)" stroke-miterlimit="10"/>
<path d="M-157.704 296.432C-93.9052 278.859 -39.722 296.217 20.737 316.088C50.7241 325.942 80.6304 333.32 111.883 325.242C159.432 312.955 190.424 275.565 230.386 250.372C295.28 209.473 324.199 300.552 380.815 312.148C405.326 317.174 419.188 301.548 440.852 294C468.29 284.442 493.617 301.656 515.659 316.366" stroke="url(#paint3_linear_139_8023)" stroke-miterlimit="10"/>
<path d="M-157.704 284.038C-95.7996 264.05 -48.2692 286.515 8.58055 308.782C39.2769 320.8 70.3234 330.547 103.031 320.611C151.522 305.883 183.125 265.765 223.213 237.861C291.366 190.428 313.74 291.783 372.277 303.702C397.192 308.773 412.571 291.433 433.903 282.97C464.034 271.015 491.696 291.361 515.659 308.082" stroke="url(#paint4_linear_139_8023)" stroke-miterlimit="10"/>
<path d="M-157.704 271.868C-129.971 261.304 -102.901 258.872 -74.2161 267.398C-47.7305 275.269 -24.9888 291.164 0.00640728 302.41C29.5266 315.693 59.8549 327.342 92.1583 316.761C143.469 299.951 174.353 254.303 216.228 224.022C284.031 174.982 303.756 279.514 359.42 293.614C387.603 300.749 403.934 280.062 427.897 270.602C460.281 257.813 490.538 281.686 515.659 299.771" stroke="url(#paint5_linear_139_8023)" stroke-miterlimit="10"/>
<path d="M-157.704 260.119C-132.745 248.82 -107.875 245.301 -81.5154 254.133C-55.5505 262.83 -34.4608 281.139 -10.543 293.812C17.2804 308.558 45.9117 323.357 77.9279 313.916C131.608 298.102 165.303 246.836 206.962 213.664C277.997 157.095 289.786 270.853 347.982 283.948C377.844 290.67 396.437 266.68 422.079 257.328C456.573 244.754 489.658 272.227 515.649 291.451" stroke="url(#paint6_linear_139_8023)" stroke-miterlimit="10"/>
<path d="M-157.704 248.963C-100.019 217.999 -65.3726 254.627 -18.3899 284.226C8.29325 301.037 37.0234 320.485 69.7219 309.662C122.675 292.133 157.51 239.432 197.652 204.384C223.563 181.767 248.369 176.517 270.564 205.129C289.813 229.936 302.176 265.666 336.427 272.855C366.253 279.111 387.316 254.555 412.903 244.548C450.558 229.811 487.835 262.031 515.659 283.149" stroke="url(#paint7_linear_139_8023)" stroke-miterlimit="10"/>
<path d="M-157.704 238.588C-101.833 203.487 -67.0156 239.934 -22.9508 273.016C0.554069 290.661 27.1654 315.1 58.9211 306.817C78.2511 301.773 95.3905 287.439 110.151 274.785C138.522 250.471 162.071 221.787 189.006 196.1C214.827 171.473 240.28 161.78 262.42 194.269C278.922 218.484 291.581 255.892 324.756 261.178C356.296 266.204 379.379 239.154 407.041 229.802C446.94 216.303 487.162 252.58 515.659 274.82" stroke="url(#paint8_linear_139_8023)" stroke-miterlimit="10"/>
<path d="M-157.704 229.182C-135.923 213.521 -111.889 203.693 -85.3491 213.234C-61.7185 221.733 -43.3492 241.478 -25.1864 257.929C-4.71614 276.472 21.141 309.392 52.5646 302.921C70.2516 299.277 85.8107 285.743 99.0266 274.219C128.197 248.775 153.766 219.301 179.992 190.949C204.538 164.4 231.742 145.301 254.636 182.252C270.052 207.122 282.02 246.459 316.981 247.841C348.009 249.071 371.325 224.3 399.292 215.163C442.19 201.153 485.707 242.331 515.667 266.518" stroke="url(#paint9_linear_139_8023)" stroke-miterlimit="10"/>
<path d="M-157.704 220.548C-135.348 203.137 -110.443 191.577 -82.2067 201.611C-58.3786 210.074 -38.6446 229.371 -21.0294 246.72C-2.71399 264.768 21.8682 300.22 51.8553 294.171C68.6355 290.787 83.3956 277.226 95.7676 266.222C124.058 241.047 149.322 212.345 174.883 184.496C198.289 158.997 225.78 135.752 248.998 172.532C264.189 196.594 275.726 234.998 310.032 235.474C340.791 235.896 366.441 213.575 395.163 205.928C439.865 194.018 483.553 233.059 515.659 258.001" stroke="url(#paint10_linear_139_8023)" stroke-miterlimit="10"/>
<path d="M-157.704 210.927C-133.041 191.532 -106.726 181.103 -76.5774 194.566C-51.645 205.704 -29.8101 226.777 -10.516 245.436C6.79388 262.184 28.2427 290.446 55.5363 281.641C72.1908 276.265 86.6726 261.905 99.0984 250.363C124.004 227.235 147.15 202.185 170.645 177.648C193.037 154.25 220.205 131.489 244.275 164.113C261.397 187.323 272.296 224.443 306.476 226.14C336.921 227.648 366.36 207.57 395.71 202.185C440.098 194.036 481.38 224.623 515.667 248.191" stroke="url(#paint11_linear_139_8023)" stroke-miterlimit="10"/>
<path d="M-157.704 200.238C-131.183 180.008 -104.158 171.114 -73.1747 187.089C-49.4364 199.322 -27.5297 219.023 -8.00214 237C10.1966 253.756 32.5433 282.629 60.0434 269.848C74.3995 263.18 86.2148 250.48 97.4913 239.737C121.212 217.12 143.648 193.139 166.812 169.965C190.774 145.993 217.924 127.405 242.785 159.276C259.897 181.22 272.224 215.765 304.672 217.201C334.524 218.529 364.179 204.232 393.313 199.475C438.285 192.133 478.211 215.056 515.667 237.143" stroke="url(#paint12_linear_139_8023)" stroke-miterlimit="10"/>
<path d="M-157.704 188.678C-127.115 166.617 -97.9364 161.627 -65.3637 182.153C-41.9576 196.899 -20.3202 216.878 0.625858 234.89C18.1153 249.933 37.7865 273.546 62.261 259.868C75.3691 252.544 86.2776 239.486 96.7192 228.922C118.949 206.422 140.595 183.374 163.472 161.519C187.174 138.875 214.306 122.532 239.535 151.144C258.371 172.505 271.416 206.574 303.783 209.662C332.306 212.381 363.389 201.234 391.445 196.89C436.282 189.952 475.732 205.793 515.649 225.135" stroke="url(#paint13_linear_139_8023)" stroke-miterlimit="10"/>
<path d="M-157.704 176.463C-124.566 154.178 -94.0938 151.79 -60.8835 175.108C-35.8255 192.699 -13.3082 214.93 10.5198 234.208C26.905 247.455 45.0319 265.621 65.5111 250.399C79.0502 240.338 90.1023 225.179 101.343 212.83C120.35 191.963 139.832 171.374 160.743 152.401C186.366 129.146 214.154 118.161 239.957 146.19C258.847 166.707 273.32 198.73 304.357 202.203C333.734 205.488 365.499 197.779 394.597 193.785C437.387 187.915 475.472 197.473 515.659 212.345" stroke="url(#paint14_linear_139_8023)" stroke-miterlimit="10"/>
<path d="M-157.704 163.781C-119.924 140.168 -87.8091 142.681 -53.1264 170.36C-26.8114 191.361 -4.38395 215.801 23.0444 235.617C41.8626 249.206 55.4286 256.879 72.6039 237.942C101.792 205.757 125.431 169.076 159.629 141.326C184.732 120.961 212.349 113.368 237.362 137.071C258.497 157.095 272.718 187.834 303.226 195.05C331.39 201.701 366.738 195.14 395.055 191.281C436.848 185.582 474.565 188.929 515.667 199.053" stroke="url(#paint15_linear_139_8023)" stroke-miterlimit="10"/>
<path d="M-157.704 150.848C-115.399 126.176 -80.9497 134.19 -45.2795 165.774C-19.7276 188.4 1.52369 214.598 30.5232 233.185C51.8104 246.836 63.0152 249.251 77.5778 227.513C100.652 193.076 123.878 157.876 157.492 132.476C184.669 111.932 212.205 107.319 238.763 131.004C260.876 150.731 276.615 182.467 307.886 189.45C335.619 195.643 367.986 192.699 395.944 188.893C436.534 183.365 474.664 180.87 515.667 185.438" stroke="url(#paint16_linear_139_8023)" stroke-miterlimit="10"/>
<path d="M-157.704 137.87C-111.592 112.426 -75.518 124.964 -38.9678 159.778C-13.1017 184.415 8.2214 214.508 40.067 231.974C63.7065 244.943 72.0023 238.202 83.2789 215.971C101.217 180.618 123.905 144.889 157.133 121.859C185.262 102.356 213.714 101.755 240.136 124.165C263.183 143.722 279.973 174.632 310.848 183.302C377.071 201.898 449.139 174.103 515.667 171.796" stroke="url(#paint17_linear_139_8023)" stroke-miterlimit="10"/>
<path d="M-157.704 125.045C-134.765 112.83 -113.199 105.578 -87.5308 114.472C-66.2974 121.832 -48.9067 137.278 -33.3296 153.011C-7.63404 178.985 14.3355 213.934 48.5693 229.371C74.2468 240.949 80.3251 225.35 88.989 203.586C103.112 168.08 124.435 131.704 157.753 110.918C230.368 65.6031 256.575 157.292 314.35 177.172C381.821 200.39 449.687 171.096 515.667 158.324" stroke="url(#paint18_linear_139_8023)" stroke-miterlimit="10"/>
<path d="M-157.704 112.579C-133.777 99.9237 -111.727 92.8693 -85.5915 102.482C-63.6668 110.541 -45.9439 127.01 -30.0615 143.695C-5.08422 169.929 20.746 215.343 58.0054 225.79C84.0869 233.104 88.199 208.71 94.8069 189.073C106.371 154.698 126.302 116.797 159.647 98.6133C228.869 60.8643 263.731 145.741 315.993 169.732C384.559 201.207 450.953 168.933 515.659 145.257" stroke="url(#paint19_linear_139_8023)" stroke-miterlimit="10"/>
<path d="M-157.704 100.687C-133.544 87.547 -111.781 80.4119 -85.1874 89.719C-63.1371 97.4375 -45.1179 114.661 -29.442 131.444C-4.00686 158.683 23.2598 210.424 62.8087 218.143C89.6893 223.393 93.4601 196.549 99.3319 176.391C109.414 141.81 127.568 103.532 162.412 87.4483C231.733 55.4523 269.118 136.937 320.249 163.287C346.869 177.001 381.336 184.029 410.991 179.254C448.583 173.205 482.96 150.938 515.667 132.871" stroke="url(#paint20_linear_139_8023)" stroke-miterlimit="10"/>
<path d="M-157.704 89.5575C-131.973 74.6859 -107.103 66.1147 -78.6154 78.967C-57.2384 88.6152 -40.2787 106.35 -24.9529 123.564C-1.98678 149.358 26.9588 203.702 65.5919 207.777C94.6722 210.846 98.3442 179.102 104.575 157.669C114.209 124.542 131.554 89.028 166.471 76.2475C235.27 51.0546 275.052 126.598 324.693 156.117C349.778 171.033 382.566 181.247 411.907 177.594C451.213 172.693 485.231 144.26 515.649 121.329" stroke="url(#paint21_linear_139_8023)" stroke-miterlimit="10"/>
<path d="M-157.704 79.4067C-133.409 63.9337 -109.491 53.1636 -80.7881 64.7504C-57.7861 74.0396 -39.4706 93.7578 -23.669 112.184C-1.07996 138.525 27.327 192.609 67.4594 193.56C96.0728 194.233 101.37 162.031 108.122 140.527C118.563 107.301 135.074 75.0717 171.696 65.6749C241.824 47.6709 280.763 116.743 330.942 149.879C355.506 166.106 388.267 179.487 418.192 175.17C457.327 169.516 488.769 137 515.659 110.918" stroke="url(#paint22_linear_139_8023)" stroke-miterlimit="10"/>
<path d="M-157.704 70.4407C-135.402 54.2766 -112.239 40.7332 -83.8766 50.2288C-61.7724 57.6243 -44.3637 75.7359 -29.4869 92.9142C-5.12013 121.042 19.3903 171.078 61.3363 174.273C93.2267 176.696 101.514 145.714 110.689 121.204C123.205 87.7625 140.649 59.4462 178.977 54.2676C246.924 45.0861 286.078 103.487 333.285 140.249C356.951 158.674 388.995 176.319 419.96 173.304C461.035 169.301 491.265 131.121 515.659 101.853" stroke="url(#paint23_linear_139_8023)" stroke-miterlimit="10"/>
<path d="M-157.704 63.3683C-135.51 47.8863 -112.625 35.1418 -84.8283 44.1886C-63.1819 51.234 -45.9528 68.5469 -31.2556 85.2046C-7.58015 112.022 17.4779 163.503 58.2208 164.912C89.7252 165.998 100.508 138.104 111.803 113.584C126.284 82.1621 145.884 53.397 183.053 48.38C248.621 39.5306 289.579 94.0899 336.113 128.985C358.945 146.1 391.149 163.512 420.472 162.937C461.466 162.13 491.83 123.151 515.659 94.7002" stroke="url(#paint24_linear_139_8023)" stroke-miterlimit="10"/>
<path d="M-157.704 58.5307C-135.86 43.5872 -113.307 31.1927 -86.0583 39.4318C-65.0045 45.7951 -48.0268 62.004 -33.563 77.8719C-10.2646 103.442 14.6857 154.384 54.1088 154.627C85.0206 154.815 98.1826 130.223 111.677 106.269C128.161 77.0103 149.798 48.9364 185.648 44.018C248.845 35.3571 291.536 84.2891 338.097 116.86C360.704 132.674 392.559 150.319 420.535 152.814C461.323 156.448 492.18 117.084 515.649 89.6562" stroke="url(#paint25_linear_139_8023)" stroke-miterlimit="10"/>
<path d="M-157.704 55.5331C-136.749 41.2179 -114.349 28.8413 -88.1772 35.4829C-65.8664 41.1371 -48.1435 58.0013 -32.9525 74.3269C-9.86061 99.1429 13.2941 145.239 51.8733 143.524C81.0613 142.232 95.9382 120.082 111.183 98.2813C129.903 71.4997 152.501 46.3875 186.779 41.5231C249.025 32.6826 292.632 74.982 341.06 105.156C363.434 119.103 391.823 135.644 417.599 142.313C459.383 153.119 491.202 113.979 515.659 86.3355" stroke="url(#paint26_linear_139_8023)" stroke-miterlimit="10"/>
<path d="M-157.704 53.9894C-137.324 39.8896 -115.399 27.2437 -89.6586 32.4762C-68.2277 36.838 -50.81 51.8443 -35.8794 66.9134C-12.4643 90.5358 9.33468 132.961 46.7108 131.3C75.0638 130.044 92.1134 111.394 109.459 91.2986C130.244 67.2276 154.233 44.3591 187.192 39.5665C246.807 30.8966 292.488 64.7145 341.482 91.6217C365.795 104.977 391.365 121.302 416.89 132.108C457.983 149.511 490.286 111.852 515.649 84.3789" stroke="url(#paint27_linear_139_8023)" stroke-miterlimit="10"/>
<path d="M-157.704 53.5137C-114.824 23.1242 -77.7356 23.2768 -38.7973 59.3116C-14.8884 81.4351 5.42919 119.409 41.4945 118.116C68.9228 117.129 87.9924 102.015 107.322 84.2712C130.1 63.3683 155.194 43.1475 186.842 38.4446C243.647 29.9991 291.743 54.4561 341.177 77.6566C368.39 90.4281 390.404 106.449 415.749 121.984C455.774 146.513 488.446 111.493 515.667 83.4455" stroke="url(#paint28_linear_139_8023)" stroke-miterlimit="10"/>
<path d="M-157.704 53.7201C-117.796 24.4974 -81.0665 18.8251 -41.5446 51.3507C-17.0072 71.5446 1.89182 104.627 36.4937 103.945C94.1066 102.814 129.588 46.4055 185.899 37.8971C239.84 29.7478 290.513 44.1976 340.126 63.3414C370.455 75.0448 389.551 91.6217 414.151 111.843C452.74 143.56 485.537 112.534 515.659 83.1224" stroke="url(#paint29_linear_139_8023)" stroke-miterlimit="10"/>
<path d="M-157.704 54.2227C-121.208 26.418 -84.7655 14.6427 -44.9024 42.1872C-20.2573 59.2128 -2.18427 87.6637 29.6613 88.7587C86.9241 90.7422 129.534 45.9028 184.49 37.3317C234.633 29.5144 288.224 33.8493 336.598 48.353C371.038 58.6833 388.626 77.4681 412.903 102.544C421.971 111.914 432.171 121.67 445.79 123.142C472.887 126.059 498.232 99.2146 515.659 83.0954" stroke="url(#paint30_linear_139_8023)" stroke-miterlimit="10"/>
<path d="M-157.704 54.6356C-123.749 27.7284 -87.4769 10.6309 -46.725 33.1583C-21.5143 47.0965 -3.97994 70.7548 26.0879 72.5049C82.0309 75.7628 129.157 45.7951 182.972 37.4394C231.248 29.9452 285.952 23.6986 334.165 34.0378C371.254 41.9897 387.935 64.1671 410.416 92.5103C419.026 103.37 428.777 115.863 443.007 119.274C470.498 125.862 497.621 98.7838 515.649 82.9967" stroke="url(#paint31_linear_139_8023)" stroke-miterlimit="10"/>
<path d="M-157.704 54.5637C-124.566 27.2795 -87.7372 6.16125 -45.073 24.3627C-21.8105 34.2891 -4.50064 52.4815 21.3834 55.0124C77.0122 60.4603 127.595 45.6784 181.913 37.7086C210.535 33.5082 238.736 29.3438 267.116 23.6267C289.175 19.1841 310.615 16.8775 333.043 20.0905C371.792 25.6371 388.16 53.3162 408.253 83.4723C416.297 95.5438 425.967 110.532 440.583 115.334C468.595 124.542 496.535 98.335 515.659 82.4222" stroke="url(#paint32_linear_139_8023)" stroke-miterlimit="10"/>
<path d="M-157.704 53.6303C-125.787 26.5077 -88.9403 1.37756 -45.3154 13.0003C-22.1877 19.1661 -3.52205 33.5082 20.5125 36.5418C75.3422 43.4526 126.141 45.0232 180.925 37.3944C209.934 33.3557 237.129 27.4052 264.799 17.8198C286.105 10.4424 306.548 4.39318 329.388 6.00869C370.059 8.8807 386.579 41.5768 404.94 73.3305C412.76 86.8559 422.205 104.259 437.36 110.837C465.91 123.232 495.332 97.1862 515.676 81.0581" stroke="url(#paint33_linear_139_8023)" stroke-miterlimit="10"/>
<path d="M-157.704 51.4494C-126.236 24.0755 -89.5329 -3.8818 -45.3872 0.354426C-21.6849 2.62511 0.00640043 13.826 23.5382 17.2903C77.3264 25.2153 124.641 43.3 179.893 36.5598C209.126 32.9877 235.396 25.3589 261.738 12.3092C281.58 2.48151 300.488 -7.46284 323.22 -7.75004C367.411 -8.28854 384.101 30.2952 401.896 64.3286C409.581 79.0297 418.82 98.1555 434.478 106.036C463.531 120.665 494.165 94.8976 515.659 78.5002" stroke="url(#paint34_linear_139_8023)" stroke-miterlimit="10"/>
<path d="M-157.704 47.635C-125.589 19.3726 -88.7877 -10.4066 -44.2111 -13.3504C-20.1765 -14.939 5.12396 -7.79487 28.5121 -2.94834C81.1152 7.94737 124.911 41.0922 180.773 35.061C209.494 31.9646 234.857 22.6216 258.937 6.86139C278.366 -5.85626 296.169 -19.4894 320.294 -20.8984C365.445 -23.5281 381.983 21.2843 398.457 55.2908C406.286 71.4369 415.274 90.9666 431.416 100.525C460.407 117.685 493.833 90.5717 515.659 74.4166" stroke="url(#paint35_linear_139_8023)" stroke-miterlimit="10"/>
<path d="M-157.704 41.7832C-102.749 -6.46665 -44.8306 -43.6682 29.9845 -25.5925C83.243 -12.7223 124.264 37.3316 182.048 32.6107C211.325 30.2144 235.989 18.466 258.263 -0.139236C275.708 -14.7057 291.249 -30.6813 315.05 -33.2572C360.444 -38.1665 377.08 7.73188 392.64 41.6935C401.133 60.2269 410.327 83.4095 428.759 94.4488C458.476 112.246 492.989 84.8993 515.649 68.4212" stroke="url(#paint36_linear_139_8023)" stroke-miterlimit="10"/>
<path d="M-157.704 33.8314C-104.823 -11.3311 -36.7951 -61.2862 37.185 -40.5718C89.1147 -26.0322 128.349 29.3349 185.423 26.409C213.965 24.9461 238.215 11.2771 258.362 -8.09106C274.343 -23.4474 288.627 -40.7692 312.132 -43.372C355.676 -48.2095 373.399 -2.90348 388.743 29.308C397.928 48.5774 407.552 72.1638 426.442 84.0199C456.69 103.002 491.624 77.0821 515.649 60.3527" stroke="url(#paint37_linear_139_8023)" stroke-miterlimit="10"/>
<path d="M-157.704 25.5205C-104.634 -17.7213 -34.9636 -65.4686 37.8494 -47.5364C91.3682 -34.3611 133.763 20.5842 191.708 16.8236C217.969 15.1184 239.975 2.36485 258.416 -15.6211C273.131 -29.9723 286.033 -46.3248 307.518 -49.834C350.37 -56.8346 371.541 -10.3887 388.169 20.4137C397.721 38.0945 408.082 58.5846 425.419 69.9918C455.738 89.9434 489.855 67.8558 515.659 51.2519" stroke="url(#paint38_linear_139_8023)" stroke-miterlimit="10"/>
<path d="M-157.704 17.2096C-103.629 -24.5065 -30.5643 -70.6382 41.71 -52.2573C94.2592 -38.8935 139.24 11.2591 195.946 8.18067C220.124 6.87032 241.295 -6.00888 258.201 -22.3973C271.749 -35.5278 283.806 -51.1713 303.271 -55.2909C345.45 -64.2121 369.709 -17.4072 388.079 11.8156C399.122 29.3797 410.668 48.712 429.63 58.6474C459.635 74.3627 489.478 57.0139 515.659 41.4781" stroke="url(#paint39_linear_139_8023)" stroke-miterlimit="10"/>
<path d="M-157.704 8.89875C-101.896 -31.5159 -27.0538 -73.9589 45.1486 -56.0806C97.1951 -43.1924 144.088 3.24446 199.923 -0.569934C222.414 -2.10467 241.636 -13.4043 257.707 -28.5093C271.219 -41.209 283.357 -56.6909 302.66 -60.254C342.766 -67.6674 368.892 -23.7166 388.465 3.51372C399.696 19.1393 411.602 35.079 428.723 44.5476C458.512 61.0079 488.535 45.9388 515.659 31.1479" stroke="url(#paint40_linear_139_8023)" stroke-miterlimit="10"/>
<path d="M-157.704 0.587846C-101.51 -37.242 -29.0021 -73.7615 41.4586 -60.4874C95.992 -50.2109 145.273 -4.65358 202.545 -8.66543C224.263 -10.1912 242.758 -21.2664 258.578 -35.5008C271.515 -47.1504 283.268 -60.5771 301.197 -63.9607C338.313 -70.9702 365.947 -33.1135 386.346 -8.37823C399.696 7.82174 414.286 25.6013 434.262 33.8853C462.508 45.5977 490.313 33.0865 515.667 20.3958" stroke="url(#paint41_linear_139_8023)" stroke-miterlimit="10"/>
<path d="M-157.704 -7.72315C-100.109 -43.3182 -26.1021 -75.9784 43.7031 -62.6325C96.9167 -52.4548 148.622 -12.0312 204.278 -16.1328C244.697 -19.1125 262.339 -58.7194 298.773 -66.7431C335.404 -74.8027 365.229 -39.1358 387.746 -16.052C401.285 -2.1676 415.417 12.4169 433.697 19.9559C461.996 31.6235 489.46 21.2752 515.649 9.33841" stroke="url(#paint42_linear_139_8023)" stroke-miterlimit="10"/>
<path d="M-157.704 -16.0339C-98.5919 -49.0711 -25.9854 -75.8885 43.1644 -64.7685C96.809 -56.1434 149.466 -19.4983 205.014 -23.6538C243.171 -26.5078 263.569 -62.0939 298.791 -68.9957C333.132 -75.718 362.679 -47.4017 386.265 -26.7142C400.828 -13.9338 415.812 -0.525053 434.155 6.57421C462.247 17.452 489.119 9.10518 515.667 -1.87131" stroke="url(#paint43_linear_139_8023)" stroke-miterlimit="10"/>
<path d="M-157.704 -24.3448C-97.703 -54.0702 -25.9046 -76.0232 41.9973 -66.3481C95.6778 -58.7013 149.583 -27.0014 204.673 -30.9953C241.286 -33.652 264.97 -64.5261 299.545 -70.8087C333.653 -77.0104 364.718 -51.4226 390.225 -32.7275C404.078 -22.5767 418.515 -12.3093 434.855 -6.52936C463.02 3.43295 488.724 -3.13679 515.659 -13.117" stroke="url(#paint44_linear_139_8023)" stroke-miterlimit="10"/>
</g>
<defs>
<linearGradient id="paint0_linear_139_8023" x1="178.977" y1="289.473" x2="178.977" y2="342.966" gradientUnits="userSpaceOnUse">
<stop stop-color="#333333"/>
<stop offset="1" stop-color="#333333" stop-opacity="0"/>
</linearGradient>
<linearGradient id="paint1_linear_139_8023" x1="178.977" y1="271.012" x2="178.977" y2="337.651" gradientUnits="userSpaceOnUse">
<stop stop-color="#333333"/>
<stop offset="1" stop-color="#333333" stop-opacity="0"/>
</linearGradient>
<linearGradient id="paint2_linear_139_8023" x1="178.973" y1="254.517" x2="178.973" y2="332.944" gradientUnits="userSpaceOnUse">
<stop stop-color="#333333"/>
<stop offset="1" stop-color="#333333" stop-opacity="0"/>
</linearGradient>
<linearGradient id="paint3_linear_139_8023" x1="178.977" y1="239.881" x2="178.977" y2="328.69" gradientUnits="userSpaceOnUse">
<stop stop-color="#333333"/>
<stop offset="1" stop-color="#333333" stop-opacity="0"/>
</linearGradient>
<linearGradient id="paint4_linear_139_8023" x1="178.977" y1="225.302" x2="178.977" y2="324.714" gradientUnits="userSpaceOnUse">
<stop stop-color="#333333"/>
<stop offset="1" stop-color="#333333" stop-opacity="0"/>
</linearGradient>
<linearGradient id="paint5_linear_139_8023" x1="178.977" y1="211.025" x2="178.977" y2="320.876" gradientUnits="userSpaceOnUse">
<stop stop-color="#333333"/>
<stop offset="1" stop-color="#333333" stop-opacity="0"/>
</linearGradient>
<linearGradient id="paint6_linear_139_8023" x1="178.973" y1="197.991" x2="178.973" y2="316.886" gradientUnits="userSpaceOnUse">
<stop stop-color="#333333"/>
<stop offset="1" stop-color="#333333" stop-opacity="0"/>
</linearGradient>
<linearGradient id="paint7_linear_139_8023" x1="178.977" y1="185.509" x2="178.977" y2="312.787" gradientUnits="userSpaceOnUse">
<stop stop-color="#333333"/>
<stop offset="1" stop-color="#333333" stop-opacity="0"/>
</linearGradient>
<linearGradient id="paint8_linear_139_8023" x1="178.977" y1="173.551" x2="178.977" y2="308.48" gradientUnits="userSpaceOnUse">
<stop stop-color="#333333"/>
<stop offset="1" stop-color="#333333" stop-opacity="0"/>
</linearGradient>
<linearGradient id="paint9_linear_139_8023" x1="178.982" y1="161.704" x2="178.982" y2="303.751" gradientUnits="userSpaceOnUse">
<stop stop-color="#333333"/>
<stop offset="1" stop-color="#333333" stop-opacity="0"/>
</linearGradient>
<linearGradient id="paint10_linear_139_8023" x1="178.977" y1="153.431" x2="178.977" y2="294.857" gradientUnits="userSpaceOnUse">
<stop stop-color="#333333"/>
<stop offset="1" stop-color="#333333" stop-opacity="0"/>
</linearGradient>
<linearGradient id="paint11_linear_139_8023" x1="178.982" y1="147.858" x2="178.982" y2="283.303" gradientUnits="userSpaceOnUse">
<stop stop-color="#333333"/>
<stop offset="1" stop-color="#333333" stop-opacity="0"/>
</linearGradient>
<linearGradient id="paint12_linear_139_8023" x1="178.982" y1="142.328" x2="178.982" y2="273.02" gradientUnits="userSpaceOnUse">
<stop stop-color="#333333"/>
<stop offset="1" stop-color="#333333" stop-opacity="0"/>
</linearGradient>
<linearGradient id="paint13_linear_139_8023" x1="178.973" y1="135.88" x2="178.973" y2="263.976" gradientUnits="userSpaceOnUse">
<stop stop-color="#333333"/>
<stop offset="1" stop-color="#333333" stop-opacity="0"/>
</linearGradient>
<linearGradient id="paint14_linear_139_8023" x1="178.977" y1="129.538" x2="178.977" y2="256.181" gradientUnits="userSpaceOnUse">
<stop stop-color="#333333"/>
<stop offset="1" stop-color="#333333" stop-opacity="0"/>
</linearGradient>
<linearGradient id="paint15_linear_139_8023" x1="178.982" y1="122.38" x2="178.982" y2="249.256" gradientUnits="userSpaceOnUse">
<stop stop-color="#333333"/>
<stop offset="1" stop-color="#333333" stop-opacity="0"/>
</linearGradient>
<linearGradient id="paint16_linear_139_8023" x1="178.982" y1="115.076" x2="178.982" y2="243.648" gradientUnits="userSpaceOnUse">
<stop stop-color="#333333"/>
<stop offset="1" stop-color="#333333" stop-opacity="0"/>
</linearGradient>
<linearGradient id="paint17_linear_139_8023" x1="178.982" y1="107.288" x2="178.982" y2="238.533" gradientUnits="userSpaceOnUse">
<stop stop-color="#333333"/>
<stop offset="1" stop-color="#333333" stop-opacity="0"/>
</linearGradient>
<linearGradient id="paint18_linear_139_8023" x1="178.982" y1="98.489" x2="178.982" y2="233.303" gradientUnits="userSpaceOnUse">
<stop stop-color="#333333"/>
<stop offset="1" stop-color="#333333" stop-opacity="0"/>
</linearGradient>
<linearGradient id="paint19_linear_139_8023" x1="178.977" y1="89.0762" x2="178.977" y2="227.118" gradientUnits="userSpaceOnUse">
<stop stop-color="#333333"/>
<stop offset="1" stop-color="#333333" stop-opacity="0"/>
</linearGradient>
<linearGradient id="paint20_linear_139_8023" x1="178.982" y1="80.1149" x2="178.982" y2="218.81" gradientUnits="userSpaceOnUse">
<stop stop-color="#333333"/>
<stop offset="1" stop-color="#333333" stop-opacity="0"/>
</linearGradient>
<linearGradient id="paint21_linear_139_8023" x1="178.973" y1="71.1869" x2="178.973" y2="207.984" gradientUnits="userSpaceOnUse">
<stop stop-color="#333333"/>
<stop offset="1" stop-color="#333333" stop-opacity="0"/>
</linearGradient>
<linearGradient id="paint22_linear_139_8023" x1="178.977" y1="59.8795" x2="178.977" y2="193.571" gradientUnits="userSpaceOnUse">
<stop stop-color="#333333"/>
<stop offset="1" stop-color="#333333" stop-opacity="0"/>
</linearGradient>
<linearGradient id="paint23_linear_139_8023" x1="178.977" y1="47.0847" x2="178.977" y2="174.407" gradientUnits="userSpaceOnUse">
<stop stop-color="#333333"/>
<stop offset="1" stop-color="#333333" stop-opacity="0"/>
</linearGradient>
<linearGradient id="paint24_linear_139_8023" x1="178.977" y1="41.1727" x2="178.977" y2="164.943" gradientUnits="userSpaceOnUse">
<stop stop-color="#333333"/>
<stop offset="1" stop-color="#333333" stop-opacity="0"/>
</linearGradient>
<linearGradient id="paint25_linear_139_8023" x1="178.973" y1="36.7974" x2="178.973" y2="154.628" gradientUnits="userSpaceOnUse">
<stop stop-color="#333333"/>
<stop offset="1" stop-color="#333333" stop-opacity="0"/>
</linearGradient>
<linearGradient id="paint26_linear_139_8023" x1="178.977" y1="33.6396" x2="178.977" y2="144.153" gradientUnits="userSpaceOnUse">
<stop stop-color="#333333"/>
<stop offset="1" stop-color="#333333" stop-opacity="0"/>
</linearGradient>
<linearGradient id="paint27_linear_139_8023" x1="178.973" y1="31.2701" x2="178.973" y2="136.536" gradientUnits="userSpaceOnUse">
<stop stop-color="#333333"/>
<stop offset="1" stop-color="#333333" stop-opacity="0"/>
</linearGradient>
<linearGradient id="paint28_linear_139_8023" x1="178.982" y1="31.4535" x2="178.982" y2="130.275" gradientUnits="userSpaceOnUse">
<stop stop-color="#333333"/>
<stop offset="1" stop-color="#333333" stop-opacity="0"/>
</linearGradient>
<linearGradient id="paint29_linear_139_8023" x1="178.977" y1="29.2821" x2="178.977" y2="125.186" gradientUnits="userSpaceOnUse">
<stop stop-color="#333333"/>
<stop offset="1" stop-color="#333333" stop-opacity="0"/>
</linearGradient>
<linearGradient id="paint30_linear_139_8023" x1="178.977" y1="26.5159" x2="178.977" y2="123.362" gradientUnits="userSpaceOnUse">
<stop stop-color="#333333"/>
<stop offset="1" stop-color="#333333" stop-opacity="0"/>
</linearGradient>
<linearGradient id="paint31_linear_139_8023" x1="178.973" y1="22.7266" x2="178.973" y2="120.288" gradientUnits="userSpaceOnUse">
<stop stop-color="#333333"/>
<stop offset="1" stop-color="#333333" stop-opacity="0"/>
</linearGradient>
<linearGradient id="paint32_linear_139_8023" x1="178.977" y1="17.5569" x2="178.977" y2="117.245" gradientUnits="userSpaceOnUse">
<stop stop-color="#333333"/>
<stop offset="1" stop-color="#333333" stop-opacity="0"/>
</linearGradient>
<linearGradient id="paint33_linear_139_8023" x1="178.986" y1="5.74536" x2="178.986" y2="114.076" gradientUnits="userSpaceOnUse">
<stop stop-color="#333333"/>
<stop offset="1" stop-color="#333333" stop-opacity="0"/>
</linearGradient>
<linearGradient id="paint34_linear_139_8023" x1="178.977" y1="-7.75562" x2="178.977" y2="110.369" gradientUnits="userSpaceOnUse">
<stop stop-color="#333333"/>
<stop offset="1" stop-color="#333333" stop-opacity="0"/>
</linearGradient>
<linearGradient id="paint35_linear_139_8023" x1="178.977" y1="-21.009" x2="178.977" y2="106.013" gradientUnits="userSpaceOnUse">
<stop stop-color="#333333"/>
<stop offset="1" stop-color="#333333" stop-opacity="0"/>
</linearGradient>
<linearGradient id="paint36_linear_139_8023" x1="178.973" y1="-33.6204" x2="178.973" y2="100.246" gradientUnits="userSpaceOnUse">
<stop stop-color="#333333"/>
<stop offset="1" stop-color="#333333" stop-opacity="0"/>
</linearGradient>
<linearGradient id="paint37_linear_139_8023" x1="178.973" y1="-45.3964" x2="178.973" y2="90.6828" gradientUnits="userSpaceOnUse">
<stop stop-color="#333333"/>
<stop offset="1" stop-color="#333333" stop-opacity="0"/>
</linearGradient>
<linearGradient id="paint38_linear_139_8023" x1="178.977" y1="-51.4099" x2="178.977" y2="77.9072" gradientUnits="userSpaceOnUse">
<stop stop-color="#333333"/>
<stop offset="1" stop-color="#333333" stop-opacity="0"/>
</linearGradient>
<linearGradient id="paint39_linear_139_8023" x1="178.977" y1="-56.4114" x2="178.977" y2="64.8373" gradientUnits="userSpaceOnUse">
<stop stop-color="#333333"/>
<stop offset="1" stop-color="#333333" stop-opacity="0"/>
</linearGradient>
<linearGradient id="paint40_linear_139_8023" x1="178.977" y1="-61.0841" x2="178.977" y2="51.7134" gradientUnits="userSpaceOnUse">
<stop stop-color="#333333"/>
<stop offset="1" stop-color="#333333" stop-opacity="0"/>
</linearGradient>
<linearGradient id="paint41_linear_139_8023" x1="178.982" y1="-64.812" x2="178.982" y2="38.5542" gradientUnits="userSpaceOnUse">
<stop stop-color="#333333"/>
<stop offset="1" stop-color="#333333" stop-opacity="0"/>
</linearGradient>
<linearGradient id="paint42_linear_139_8023" x1="178.973" y1="-67.9058" x2="178.973" y2="25.0681" gradientUnits="userSpaceOnUse">
<stop stop-color="#333333"/>
<stop offset="1" stop-color="#333333" stop-opacity="0"/>
</linearGradient>
<linearGradient id="paint43_linear_139_8023" x1="178.982" y1="-70.0044" x2="178.982" y2="11.6589" gradientUnits="userSpaceOnUse">
<stop stop-color="#333333"/>
<stop offset="1" stop-color="#333333" stop-opacity="0"/>
</linearGradient>
<linearGradient id="paint44_linear_139_8023" x1="178.977" y1="-71.7556" x2="178.977" y2="-1.58188" gradientUnits="userSpaceOnUse">
<stop stop-color="#333333"/>
<stop offset="1" stop-color="#333333" stop-opacity="0"/>
</linearGradient>
<clipPath id="clip0_139_8023">
<rect width="674" height="450" fill="white" transform="translate(-158 -75)"/>
</clipPath>
</defs>
</svg>
