<svg width="18" height="16" viewBox="0 0 18 16" fill="none" xmlns="http://www.w3.org/2000/svg">
<path fill-rule="evenodd" clip-rule="evenodd" d="M0.599609 8.00001C0.599609 7.50295 1.00255 7.10001 1.49961 7.10001L14.2651 7.10001L9.27581 2.34876C8.91752 2.00425 8.90634 1.43451 9.25086 1.07621C9.59537 0.717918 10.1651 0.706747 10.5234 1.05126L17.1234 7.35126C17.2999 7.52094 17.3996 7.75519 17.3996 8.00001C17.3996 8.24483 17.2999 8.47908 17.1234 8.64876L10.5234 14.9488C10.1651 15.2933 9.59537 15.2821 9.25086 14.9238C8.90635 14.5655 8.91752 13.9958 9.27581 13.6513L14.2651 8.90001L1.49961 8.90001C1.00255 8.90001 0.599609 8.49707 0.599609 8.00001Z" fill="white"/>
</svg>
