<svg width="15" height="17" viewBox="0 0 15 17" fill="none" xmlns="http://www.w3.org/2000/svg">
<path fill-rule="evenodd" clip-rule="evenodd" d="M1.66699 15V2H1.41699C1.00278 2 0.666992 1.66421 0.666992 1.25C0.666992 0.835786 1.00278 0.5 1.41699 0.5H13.917C14.3312 0.5 14.667 0.835786 14.667 1.25C14.667 1.66421 14.3312 2 13.917 2H13.667V15H13.917C14.3312 15 14.667 15.3358 14.667 15.75C14.667 16.1642 14.3312 16.5 13.917 16.5H10.417C10.0028 16.5 9.66699 16.1642 9.66699 15.75V13.25C9.66699 12.8358 9.3312 12.5 8.91699 12.5H6.41699C6.00278 12.5 5.66699 12.8358 5.66699 13.25V15.75C5.66699 16.1642 5.33121 16.5 4.91699 16.5H1.41699C1.00278 16.5 0.666992 16.1642 0.666992 15.75C0.666992 15.3358 1.00278 15 1.41699 15H1.66699ZM4.66699 4C4.66699 3.72386 4.89085 3.5 5.16699 3.5H6.16699C6.44313 3.5 6.66699 3.72386 6.66699 4V5C6.66699 5.27614 6.44313 5.5 6.16699 5.5H5.16699C4.89085 5.5 4.66699 5.27614 4.66699 5V4ZM5.16699 7.5C4.89085 7.5 4.66699 7.72386 4.66699 8V9C4.66699 9.27614 4.89085 9.5 5.16699 9.5H6.16699C6.44313 9.5 6.66699 9.27614 6.66699 9V8C6.66699 7.72386 6.44313 7.5 6.16699 7.5H5.16699ZM8.66699 4C8.66699 3.72386 8.89085 3.5 9.16699 3.5H10.167C10.4431 3.5 10.667 3.72386 10.667 4V5C10.667 5.27614 10.4431 5.5 10.167 5.5H9.16699C8.89085 5.5 8.66699 5.27614 8.66699 5V4ZM9.16699 7.5C8.89085 7.5 8.66699 7.72386 8.66699 8V9C8.66699 9.27614 8.89085 9.5 9.16699 9.5H10.167C10.4431 9.5 10.667 9.27614 10.667 9V8C10.667 7.72386 10.4431 7.5 10.167 7.5H9.16699Z" fill="white"/>
</svg>
