<svg width="61" height="60" viewBox="0 0 61 60" fill="none" xmlns="http://www.w3.org/2000/svg">
<rect x="1.25" y="0.5" width="59" height="59" rx="29.5" stroke="url(#paint0_linear_172_5672)"/>
<rect x="1.25" y="0.5" width="59" height="59" rx="29.5" stroke="url(#paint1_linear_172_5672)"/>
<rect x="9.25" y="8.5" width="43" height="43" rx="21.5" stroke="url(#paint2_linear_172_5672)"/>
<rect x="9.25" y="8.5" width="43" height="43" rx="21.5" stroke="url(#paint3_linear_172_5672)"/>
<path d="M20.25 26.6691V35.25C20.25 36.9069 21.5931 38.25 23.25 38.25H38.25C39.9069 38.25 41.25 36.9069 41.25 35.25V26.6691L32.3223 32.1631C31.3581 32.7564 30.1419 32.7564 29.1777 32.1631L20.25 26.6691Z" fill="#A685FA"/>
<path d="M41.25 24.9078V24.75C41.25 23.0931 39.9069 21.75 38.25 21.75H23.25C21.5931 21.75 20.25 23.0931 20.25 24.75V24.9078L29.9639 30.8856C30.446 31.1823 31.054 31.1823 31.5361 30.8856L41.25 24.9078Z" fill="#A685FA"/>
<defs>
<linearGradient id="paint0_linear_172_5672" x1="5.68903" y1="63.2927" x2="63.4939" y2="-4.02439" gradientUnits="userSpaceOnUse">
<stop stop-color="#A685FA"/>
<stop offset="0.323723" stop-color="#A685FA" stop-opacity="0"/>
</linearGradient>
<linearGradient id="paint1_linear_172_5672" x1="60.5671" y1="-7.68292" x2="5.68902" y2="60" gradientUnits="userSpaceOnUse">
<stop stop-color="#A685FA"/>
<stop offset="0.576615" stop-color="#A685FA" stop-opacity="0"/>
</linearGradient>
<linearGradient id="paint2_linear_172_5672" x1="3.95968" y1="10.4839" x2="52.5726" y2="52" gradientUnits="userSpaceOnUse">
<stop stop-color="#A685FA"/>
<stop offset="0.323723" stop-color="#A685FA" stop-opacity="0"/>
</linearGradient>
<linearGradient id="paint3_linear_172_5672" x1="61.4435" y1="61.9355" x2="10.3468" y2="25.7419" gradientUnits="userSpaceOnUse">
<stop stop-color="#A685FA"/>
<stop offset="0.576615" stop-color="#A685FA" stop-opacity="0"/>
</linearGradient>
</defs>
</svg>
