<svg width="61" height="60" viewBox="0 0 61 60" fill="none" xmlns="http://www.w3.org/2000/svg">
<rect x="0.75" y="0.5" width="59" height="59" rx="29.5" stroke="url(#paint0_linear_172_5680)"/>
<rect x="0.75" y="0.5" width="59" height="59" rx="29.5" stroke="url(#paint1_linear_172_5680)"/>
<rect x="8.75" y="8.5" width="43" height="43" rx="21.5" stroke="url(#paint2_linear_172_5680)"/>
<rect x="8.75" y="8.5" width="43" height="43" rx="21.5" stroke="url(#paint3_linear_172_5680)"/>
<path fill-rule="evenodd" clip-rule="evenodd" d="M19.75 22.5C19.75 20.8431 21.0931 19.5 22.75 19.5H24.1216C24.982 19.5 25.732 20.0856 25.9406 20.9202L27.0464 25.3434C27.2294 26.0753 26.9559 26.8455 26.3524 27.2982L25.0588 28.2684C24.9245 28.3691 24.8953 28.5167 24.933 28.6197C26.0685 31.7195 28.5305 34.1815 31.6303 35.317C31.7333 35.3547 31.8809 35.3255 31.9816 35.1912L32.9518 33.8976C33.4045 33.2941 34.1747 33.0206 34.9066 33.2036L39.3298 34.3094C40.1644 34.518 40.75 35.268 40.75 36.1284V37.5C40.75 39.1569 39.4069 40.5 37.75 40.5H35.5C26.8015 40.5 19.75 33.4485 19.75 24.75V22.5Z" fill="#A685FA"/>
<defs>
<linearGradient id="paint0_linear_172_5680" x1="5.18903" y1="63.2927" x2="62.9939" y2="-4.02439" gradientUnits="userSpaceOnUse">
<stop stop-color="#A685FA"/>
<stop offset="0.323723" stop-color="#A685FA" stop-opacity="0"/>
</linearGradient>
<linearGradient id="paint1_linear_172_5680" x1="60.0671" y1="-7.68292" x2="5.18902" y2="60" gradientUnits="userSpaceOnUse">
<stop stop-color="#A685FA"/>
<stop offset="0.576615" stop-color="#A685FA" stop-opacity="0"/>
</linearGradient>
<linearGradient id="paint2_linear_172_5680" x1="3.45968" y1="10.4839" x2="52.0726" y2="52" gradientUnits="userSpaceOnUse">
<stop stop-color="#A685FA"/>
<stop offset="0.323723" stop-color="#A685FA" stop-opacity="0"/>
</linearGradient>
<linearGradient id="paint3_linear_172_5680" x1="60.9435" y1="61.9355" x2="9.84677" y2="25.7419" gradientUnits="userSpaceOnUse">
<stop stop-color="#A685FA"/>
<stop offset="0.576615" stop-color="#A685FA" stop-opacity="0"/>
</linearGradient>
</defs>
</svg>
